<svg version="1.1" xmlns="http://www.w3.org/2000/svg" xmlns:xlink="http://www.w3.org/1999/xlink" width="512" height="512" viewBox="0,0,256,256"><g fill="#a5a5a5" fill-rule="nonzero" stroke="none" stroke-width="1" stroke-linecap="butt" stroke-linejoin="miter" stroke-miterlimit="10" stroke-dasharray="" stroke-dashoffset="0" font-family="none" font-weight="none" font-size="none" text-anchor="none" style="mix-blend-mode: normal"><g transform="translate(0.00191,0) scale(10.66667,10.66667)"><path d="M23.821,11.181v0c-0.96614,-2.09529 -2.38122,-3.95248 -4.145,-5.44l3.032,-3.032l-1.415,-1.416l-3.293,3.29c-1.82264,-1.05428 -3.89449,-1.6009 -6,-1.583c-7.5,0 -10.943,6.261 -11.821,8.181c-0.23849,0.52065 -0.23849,1.11935 0,1.64c0.96614,2.09529 2.38122,3.95248 4.145,5.44l-3.031,3.032l1.414,1.414l3.293,-3.29c1.82264,1.05428 3.89449,1.6009 6,1.583c7.5,0 10.943,-6.261 11.821,-8.181c0.23802,-0.52006 0.23802,-1.11794 0,-1.638zM6,12c-0.00386,-2.24549 1.24849,-4.30455 3.24417,-5.33389c1.99568,-1.02934 4.39943,-0.85605 6.22683,0.44889l-1.452,1.452c-0.60956,-0.3676 -1.30718,-0.56352 -2.019,-0.567c-2.20914,0 -4,1.79086 -4,4c0.00348,0.71182 0.1994,1.40944 0.567,2.019l-1.452,1.452c-0.72503,-1.01217 -1.11494,-2.22595 -1.115,-3.471zM12,18c-1.24505,-0.00006 -2.45883,-0.38997 -3.471,-1.115l1.452,-1.452c0.60956,0.3676 1.30718,0.56352 2.019,0.567c2.20914,0 4,-1.79086 4,-4c-0.00348,-0.71182 -0.1994,-1.40944 -0.567,-2.019l1.452,-1.452c1.30494,1.8274 1.47823,4.23116 0.44889,6.22683c-1.02934,1.99568 -3.08839,3.24803 -5.33389,3.24417z"></path></g></g></svg>