<svg version="1.1" xmlns="http://www.w3.org/2000/svg" xmlns:xlink="http://www.w3.org/1999/xlink" width="512" height="512" viewBox="0,0,256,256"><g fill="#a5a5a5" fill-rule="nonzero" stroke="none" stroke-width="1" stroke-linecap="butt" stroke-linejoin="miter" stroke-miterlimit="10" stroke-dasharray="" stroke-dashoffset="0" font-family="none" font-weight="none" font-size="none" text-anchor="none" style="mix-blend-mode: normal"><g transform="translate(0.00191,0) scale(10.66667,10.66667)"><path d="M23.821,11.181v0c-0.878,-1.92 -4.321,-8.181 -11.821,-8.181c-7.5,0 -10.943,6.261 -11.821,8.181c-0.23849,0.52065 -0.23849,1.11935 0,1.64c0.878,1.918 4.321,8.179 11.821,8.179c7.5,0 10.943,-6.261 11.821,-8.181c0.23802,-0.52006 0.23802,-1.11794 0,-1.638zM12,18c-3.31371,0 -6,-2.68629 -6,-6c0,-3.31371 2.68629,-6 6,-6c3.31371,0 6,2.68629 6,6c-0.00331,3.31234 -2.68766,5.99669 -6,6z"></path><circle cx="12" cy="12" r="4"></circle></g></g></svg>