<svg width="153" height="40" viewBox="0 0 153 40" fill="none" xmlns="http://www.w3.org/2000/svg">
<path d="M114.758 8.33916L114.177 9.38374L112.927 11.6259L111.117 14.8689H120.265V11.9668H116.034L117.127 9.99126L117.171 9.91259L118.818 6.93619C119.491 5.70367 119.736 5.00874 119.736 4.20455C119.736 3.12937 119.33 2.15035 118.665 1.40734C118.259 0.952798 117.761 0.590035 117.197 0.34528C116.685 0.126748 116.126 0 115.536 0C114.819 0 114.146 0.179196 113.552 0.498252C112.275 1.18444 111.393 2.51311 111.336 4.0472C111.336 4.09965 111.336 4.1521 111.336 4.20018C111.336 4.45804 111.362 4.71154 111.406 4.9563H114.155C114.124 4.35315 114.198 4.01224 114.303 3.78934C114.386 3.60577 114.5 3.43969 114.636 3.29983C114.872 3.05944 115.178 2.89773 115.54 2.89773C116.257 2.89773 116.843 3.48339 116.843 4.20018C116.843 4.44493 116.768 4.70717 116.637 4.95192C116.58 5.05682 116.222 5.70367 115.833 6.40297L115.741 6.56906C115.261 7.43881 114.767 8.33042 114.767 8.33042L114.758 8.33916Z" fill="#2A2A2A"/>
<path d="M106.098 3.36973V5.40207V7.36449V7.43879V14.2832V14.8951H108.996V13.2168L108.969 13.1643L108.996 13.1556V5.53319V3.10749V0.476371V0.441406L104.363 0.485113L104.258 0.489483L104.284 3.38721L106.098 3.36973Z" fill="#2A2A2A"/>
<path d="M135.597 4.61114C135.597 4.61114 135.593 4.60239 135.593 4.59802C134.793 2.76236 133.285 1.30257 131.419 0.55956C131.41 0.55956 131.406 0.55519 131.397 0.550819C130.536 0.20991 129.6 0.0219727 128.617 0.0219727C128.018 0.0219727 127.433 0.0919027 126.873 0.227392C125.894 0.459036 124.994 0.882987 124.203 1.4468C124.19 1.45554 124.177 1.46428 124.163 1.47302C122.704 2.53071 121.633 4.0954 121.213 5.90484C121.082 6.45991 121.008 7.03683 121.008 7.63124C121.008 7.68369 121.008 7.73177 121.008 7.78421L124.496 8.12949C124.482 8.00274 124.478 7.876 124.478 7.74488C124.478 6.87075 124.749 6.06218 125.212 5.39348C125.899 4.40571 127 3.72827 128.267 3.62337C128.381 3.61463 128.499 3.60589 128.617 3.60589C128.866 3.60589 129.111 3.63211 129.351 3.67582C131.012 3.97302 132.328 5.25799 132.669 6.90135C132.725 7.17232 132.756 7.45642 132.756 7.74051C132.756 8.15135 132.695 8.54907 132.581 8.92058C132.345 9.71166 131.882 10.4022 131.266 10.918C130.549 11.5167 129.627 11.8751 128.617 11.8751C127.97 11.8751 127.363 11.7222 126.821 11.4599C126.821 11.4599 126.786 11.4424 126.768 11.4337C126.113 11.1059 125.553 10.6076 125.156 9.99575C124.797 9.44942 124.566 8.81131 124.504 8.12512L121.017 7.77984C121.056 9.79033 121.878 11.6129 123.193 12.9503C123.442 13.2082 123.713 13.4442 123.997 13.6627C125.059 14.4756 126.34 15.0132 127.734 15.1749C128.027 15.2099 128.324 15.2318 128.626 15.2318C129.093 15.2318 129.552 15.1837 129.998 15.105C130.934 14.9346 131.808 14.598 132.59 14.1173C134.329 13.0508 135.606 11.3069 136.056 9.25712C136.17 8.73264 136.235 8.18631 136.235 7.62687C136.235 7.39086 136.222 7.15484 136.2 6.9232C136.126 6.10589 135.925 5.32792 135.61 4.60676L135.597 4.61114Z" fill="#2A2A2A"/>
<path d="M139.595 1.31997L139.56 2.25966C139.546 2.60056 139.525 2.8934 139.485 3.14252C139.45 3.39165 139.389 3.58833 139.302 3.72382C139.214 3.85931 139.083 3.92924 138.913 3.92924C138.856 3.92924 138.799 3.92487 138.734 3.91175L138.668 4.93885C138.773 4.96508 138.873 4.98256 138.965 4.99567C139.057 5.00878 139.149 5.01315 139.236 5.01315C139.516 5.01315 139.743 4.94759 139.927 4.82085C140.106 4.68973 140.246 4.50616 140.351 4.2614C140.451 4.01665 140.525 3.72382 140.569 3.37854C140.613 3.03326 140.643 2.64864 140.661 2.22032L140.67 1.90126L140.683 1.49042H141.963V4.93885H143.2V0.498291H139.616L139.586 1.32434L139.595 1.31997Z" fill="#2A2A2A"/>
<path d="M145.557 3.85931V3.15126H146.501H147.533V2.38203V2.22032H145.557V1.47294H147.528H147.799V0.498291H145.793H144.32V3.79375V4.78588V4.94322H146.449H147.882V3.9642H145.557V3.85931Z" fill="#2A2A2A"/>
<path d="M150.233 0.498291H148.406V1.49479H148.9H149.766V2.63553V4.94322H151.007V3.33046V1.49479H152.37V0.498291H150.233Z" fill="#2A2A2A"/>
<path d="M25.0755 33.9903C24.6734 33.8199 24.2013 34.0078 24.0309 34.4143C23.0038 36.84 20.6393 38.409 18.0038 38.409C15.3683 38.409 13.0038 36.84 11.9767 34.4143C11.8062 34.0122 11.3386 33.8199 10.9321 33.9903C10.5256 34.1608 10.3377 34.6284 10.5081 35.0349C11.7844 38.0506 14.7258 39.9999 17.9994 39.9999C21.273 39.9999 24.2144 38.0506 25.4907 35.0349C25.6611 34.6284 25.4732 34.1608 25.0667 33.9903H25.0755Z" fill="#2A2A2A"/>
<path d="M19.7434 35.2318C20.0231 35.2318 20.2504 35.0045 20.2504 34.7248C20.2504 34.445 20.0231 34.2178 19.7434 34.2178H16.2687C15.989 34.2178 15.7617 34.445 15.7617 34.7248C15.7617 35.0045 15.989 35.2318 16.2687 35.2318H19.7434Z" fill="#2A2A2A"/>
<path d="M13.3891 22.3513C13.5246 22.4388 13.6776 22.4825 13.8262 22.4825C14.084 22.4825 14.3419 22.3557 14.4949 22.1241C16.7938 18.6276 20.1942 16.0314 24.1365 14.7508C24.1365 14.7945 24.1409 14.8426 24.1409 14.8863C24.1409 15.6992 23.6295 16.416 22.8777 16.7351C20.7449 17.6966 18.8131 19.0996 17.2396 20.8522C16.9424 21.18 16.9687 21.687 17.2965 21.9798C17.4494 22.1153 17.6417 22.1853 17.8297 22.1853C18.0482 22.1853 18.2667 22.0978 18.4241 21.923C19.9931 20.1791 21.9512 18.8155 24.119 17.9457C24.1321 18.0419 24.1409 18.1381 24.1409 18.2342C24.1409 18.916 23.7868 19.5498 23.2099 19.9125C22.3139 20.3977 21.4704 20.979 20.6968 21.6477C20.3646 21.9361 20.3253 22.4388 20.6181 22.7753C20.7755 22.9589 20.9984 23.0506 21.2213 23.0506C21.4048 23.0506 21.5928 22.9851 21.7458 22.854C22.4232 22.2639 23.1662 21.7526 23.9529 21.3286C23.9529 21.3286 23.9879 21.3111 24.0097 21.298C24.0316 21.2849 24.0534 21.2762 24.0753 21.2631C24.119 21.4291 24.1452 21.604 24.1452 21.7832C24.1452 22.3557 23.8961 22.902 23.4634 23.2779C23.1312 23.5664 23.0963 24.0734 23.3847 24.4055C23.5421 24.5891 23.765 24.6809 23.9879 24.6809C24.1715 24.6809 24.3594 24.6153 24.5124 24.4842C25.2947 23.8024 25.7449 22.819 25.7449 21.7832C25.7449 21.1582 25.5832 20.5463 25.2729 20.0087C25.5788 19.4711 25.7449 18.8592 25.7449 18.2342C25.7449 17.6442 25.6006 17.0716 25.3297 16.5603C25.6006 16.0489 25.7449 15.4763 25.7449 14.8863C25.7449 14.4187 25.6444 13.9291 25.4783 13.5358C25.286 13.0725 24.9451 12.8758 24.2501 13.0463C22.4407 13.4964 19.9276 14.7246 18.0438 16.1101C16.1164 17.5262 14.473 19.2526 13.1618 21.2499C12.9215 21.6171 13.022 22.1153 13.3891 22.3557V22.3513Z" fill="#2A2A2A"/>
<path d="M18.389 23.7107C16.8418 23.5402 15.1329 23.6932 13.2973 24.1696C11.6408 24.5979 9.8969 25.2885 8.10057 26.2194C6.44847 27.0761 4.792 28.1163 3.17924 29.3182C2.11718 30.1093 1.13379 30.9222 0.176619 31.7832C-0.168661 32.0979 0.0323878 32.5525 0.434486 32.5525H26.1163C26.3392 27.4214 22.9345 24.2133 18.3803 23.7107H18.389ZM7.12155 30.9572C10.1591 30.1617 12.8514 29.7422 14.9144 29.7422C16.4223 29.7422 17.6154 30.1399 18.5158 30.9572C14.9144 30.9572 10.5438 30.9572 7.12155 30.9572ZM19.8882 30.9572C19.4292 30.3628 18.8873 29.882 18.271 29.528C17.3445 28.9991 16.2125 28.7282 14.9144 28.7282C13.695 28.7282 12.2789 28.8637 10.7142 29.1303C9.46858 29.3444 8.1268 29.6416 6.71945 30.0131C5.53501 30.3278 4.49917 30.6425 3.75617 30.8829C5.39078 29.6373 7.12155 28.5315 8.84358 27.6355C11.8855 26.0577 14.7264 25.2404 17.139 25.2404C17.5062 25.2404 17.8689 25.2579 18.2142 25.2972C19.9362 25.4895 21.3873 26.1233 22.4625 27.0892H19.4817C19.202 27.0892 18.9747 27.3165 18.9747 27.5962C18.9747 27.8759 19.202 28.1032 19.4817 28.1032H23.3672C23.9441 28.9205 24.32 29.8864 24.4598 30.9572C23.5202 30.9572 21.8812 30.9572 19.8925 30.9572H19.8882Z" fill="#2A2A2A"/>
<path d="M101.552 24.6767C101.045 24.5674 100.472 24.5193 99.9434 24.5018V23.6321H97.8236V24.5018C97.2948 24.5193 96.7223 24.5674 96.2153 24.6767C94.974 24.9476 93.3438 26.0141 93.3438 28.0945C93.3438 30.1749 94.9784 31.2413 96.2153 31.5123C96.7223 31.6216 97.2948 31.6697 97.8236 31.6872V32.5569H99.9434V31.6872C100.472 31.6697 101.045 31.6216 101.552 31.5123C102.793 31.2413 104.423 30.1749 104.423 28.0945C104.423 26.0141 102.789 24.9476 101.552 24.6767ZM97.8236 30.07C97.7493 30.07 97.6707 30.0656 97.5876 30.0613C96.2415 29.9913 95.4679 29.1609 95.4679 28.0945C95.4679 27.0281 96.2415 26.1976 97.5876 26.1277C97.6707 26.1277 97.745 26.119 97.8236 26.119V30.07ZM100.175 30.0569C100.092 30.0569 100.018 30.0656 99.939 30.0656V26.1146C100.013 26.1146 100.092 26.119 100.175 26.1233C101.521 26.1933 102.295 27.0237 102.295 28.0901C102.295 29.1566 101.521 29.987 100.175 30.0569Z" fill="#2A2A2A"/>
<path d="M87.3294 23.4922C84.5365 23.4922 82.4648 25.4459 82.4648 28.0901C82.4648 30.7343 84.5365 32.688 87.3294 32.688C90.1222 32.688 92.1939 30.7343 92.1939 28.0901C92.1939 25.4459 90.1222 23.4922 87.3294 23.4922ZM87.3294 30.6906C85.7559 30.6906 84.6676 29.6242 84.6676 28.0901C84.6676 26.556 85.7603 25.4896 87.3294 25.4896C88.8984 25.4896 89.9911 26.556 89.9911 28.0901C89.9911 29.6242 88.8984 30.6906 87.3294 30.6906Z" fill="#2A2A2A"/>
<path d="M48.4309 23.4922C45.6381 23.4922 43.5664 25.4459 43.5664 28.0901C43.5664 30.7343 45.6381 32.688 48.4309 32.688C51.2237 32.688 53.2954 30.7343 53.2954 28.0901C53.2954 25.4459 51.2237 23.4922 48.4309 23.4922ZM48.4309 30.6906C46.8575 30.6906 45.7692 29.6242 45.7692 28.0901C45.7692 26.556 46.8619 25.4896 48.4309 25.4896C50 25.4896 51.0926 26.556 51.0926 28.0901C51.0926 29.6242 50 30.6906 48.4309 30.6906Z" fill="#2A2A2A"/>
<path d="M59.2122 25.494C60.1431 25.494 60.9255 25.8655 61.463 26.3856L62.8005 25.0482C62.0837 24.2221 60.9429 23.4966 59.2122 23.4966C56.4193 23.4966 54.3477 25.4503 54.3477 28.0945C54.3477 30.7387 56.4193 32.6924 59.2122 32.6924C60.9429 32.6924 62.0837 31.9669 62.8005 31.1408L61.463 29.8034C60.9211 30.3235 60.1387 30.695 59.2122 30.695C57.6387 30.695 56.5505 29.6286 56.5505 28.0945C56.5505 26.5604 57.6431 25.494 59.2122 25.494Z" fill="#2A2A2A"/>
<path d="M118.852 23.6321V25.459V30.7256V32.5525H120.971H125.25V30.7256H120.971V28.9599H124.769V27.133H120.971V25.459H125.25V23.6321H120.971H118.852Z" fill="#2A2A2A"/>
<path d="M117.225 23.6321H114.712L112.951 27.133H111.945V23.6321H109.826V27.133H108.82L107.059 23.6321H104.546L107.19 28.0377L104.371 32.5525H106.884L108.79 28.9599H109.826V32.5525H111.945V28.9599H112.986L114.887 32.5525H117.4L114.581 28.0377L117.225 23.6321Z" fill="#2A2A2A"/>
<path d="M70.0422 23.6321H66.3927H64.8805H64.2773V32.5525H66.3927V25.459H70.0422V32.5525H72.162V23.6321H71.6681H70.0422Z" fill="#2A2A2A"/>
<path d="M40.004 23.7938C39.4314 23.6714 38.5966 23.6321 37.9672 23.6321H35.3711V32.5525H37.4865V30.1137H37.9629C38.5922 30.1137 39.427 30.0744 39.9996 29.952C41.0529 29.7291 42.6613 28.9511 42.6613 26.8707C42.6613 24.7903 41.0573 24.0123 39.9996 23.7894L40.004 23.7938ZM38.5704 28.2868H37.4908V25.459H38.5704C39.733 25.459 40.3755 25.9441 40.3755 26.8707C40.3755 27.7973 39.733 28.2824 38.5704 28.2824V28.2868Z" fill="#2A2A2A"/>
<path d="M78.8477 23.7938C78.2752 23.6714 77.4404 23.6321 76.811 23.6321H74.2148V32.5525H76.3302V30.1137H76.8066C77.436 30.1137 78.2708 30.0744 78.8433 29.952C79.8967 29.7291 81.5051 28.9511 81.5051 26.8707C81.5051 24.7903 79.901 24.0123 78.8433 23.7894L78.8477 23.7938ZM77.4141 28.2868H76.3346V25.459H77.4141C78.5767 25.459 79.2192 25.9441 79.2192 26.8707C79.2192 27.7973 78.5767 28.2824 77.4141 28.2824V28.2868Z" fill="#2A2A2A"/>
<path d="M133.287 23.6321H128.991C128.921 28.7588 129.017 30.9223 126.723 30.542V32.4476C129.69 33.1775 130.827 31.7527 130.984 25.459H133.287V32.5525H135.407V23.6321H133.287Z" fill="#2A2A2A"/>
<path d="M45.865 18.5621C45.4498 18.5446 45.1482 18.208 45.0608 18.0726L44.4883 18.4441C44.7549 18.9161 45.2531 19.2788 45.9044 19.2788C46.761 19.2788 47.4516 18.7456 47.4516 17.8147C47.4516 17.0848 46.8878 16.3462 45.6509 16.4642V15.4677H47.2636V14.7771H44.8598V17.2115C45.7295 16.9799 46.56 17.0979 46.6517 17.7491C46.726 18.2649 46.3021 18.5795 45.865 18.5577V18.5621Z" fill="#2A2A2A"/>
<path d="M35.3741 19.2089H36.1695V14.7815H34.7578V15.4721H35.3741V19.2089Z" fill="#2A2A2A"/>
<path d="M43.9088 16.2106C43.9088 15.2796 43.2095 14.7114 42.3528 14.7114C41.4962 14.7114 40.7969 15.2796 40.7969 16.2106V17.7796C40.7969 18.7106 41.4962 19.2787 42.3528 19.2787C43.2095 19.2787 43.9088 18.7106 43.9088 17.7796V16.2106ZM43.1177 17.7796C43.1177 18.291 42.7768 18.5925 42.3572 18.5925C41.9376 18.5925 41.5967 18.2953 41.5967 17.7796V16.2062C41.5967 15.6948 41.9376 15.3932 42.3572 15.3932C42.7768 15.3932 43.1177 15.6904 43.1177 16.2062V17.7796Z" fill="#2A2A2A"/>
<path d="M38.7581 17.666L37.7791 19.2088H38.6926C38.6926 19.2088 39.5448 17.7971 39.7721 17.4125C40.0737 16.9055 40.1392 16.534 40.1392 16.2106C40.1392 15.2796 39.4399 14.7114 38.5833 14.7114C37.7266 14.7114 37.0273 15.2796 37.0273 16.2106C37.0273 17.2377 37.7791 17.8495 38.7537 17.666H38.7581ZM38.5833 15.3976C39.0247 15.3976 39.3438 15.6948 39.3438 16.2106C39.3438 16.7263 39.0247 17.0235 38.5833 17.0235C38.1419 17.0235 37.8228 16.7263 37.8228 16.2106C37.8228 15.6948 38.1419 15.3976 38.5833 15.3976Z" fill="#2A2A2A"/>
</svg>
