<svg width="204" height="40" viewBox="0 0 204 40" fill="none" xmlns="http://www.w3.org/2000/svg">
<g clip-path="url(#clip0_252_3542)">
<path fill-rule="evenodd" clip-rule="evenodd" d="M26.6768 27.5413H21.1064V21.276H5.57046V27.5413H0V11.5H5.57046V16.9387H21.1064V11.5H26.6768V27.5413ZM130.561 13.4967C130.64 13.3587 130.797 13.29 130.954 13.29H131.111C131.268 13.29 131.425 13.3587 131.503 13.4967L133.936 17.352H128.129L130.561 13.4967ZM138.094 18.7287C138.094 17.9713 137.388 17.352 136.525 17.352L133.072 12.0507C132.837 11.6373 132.523 11.5 131.974 11.5H130.169C129.62 11.5 129.306 11.6373 129.071 12.0507L125.619 17.352C124.756 17.352 124.049 17.972 124.049 18.7287V19.624H125.854V19.0733H136.289V19.624H138.094V18.7287ZM146.644 16.2507H139.896V13.29H146.644V16.2507ZM146.173 18.0407C148.056 18.0407 148.998 17.352 148.998 15.9747V13.5653C148.998 12.1887 148.056 11.5 146.173 11.5H140.446C138.563 11.5 137.621 12.1887 137.621 13.5653V15.9747C137.621 17.352 138.563 18.0407 140.446 18.0407H146.173ZM152.528 13.29V14.1853H157.628C157.943 14.1853 158.021 14.116 158.021 13.9787V13.4967C158.021 13.3587 157.864 13.29 157.628 13.29H152.528ZM160.296 14.3233C160.296 15.3553 159.59 15.906 158.021 15.906H152.45V18.0407H150.175V11.5H158.021C159.511 11.5 160.296 12.0507 160.296 13.0833V14.3233ZM170.418 16.25H163.67V13.29H170.418V16.25ZM169.948 18.0407C171.83 18.0407 172.772 17.352 172.772 15.9747V13.5653C172.772 12.1887 171.83 11.5 169.948 11.5H164.22C162.337 11.5 161.395 12.1887 161.395 13.5653V15.9747C161.395 17.352 162.337 18.0407 164.22 18.0407H169.948ZM184.306 13.29H176.225V18.0407H173.949V13.0833C173.949 12.0507 174.734 11.5 176.225 11.5H184.306V13.29ZM193.799 18.0407H196.075V12.946C196.075 12.1887 195.369 11.5 194.427 11.5H193.564C192.309 11.5 191.681 11.9133 190.975 12.808L188.621 15.906C188.464 16.1127 188.229 16.2507 187.915 16.2507H187.758V11.5H185.483V16.5947C185.483 17.352 186.189 18.0407 187.13 18.0407H187.523C189.17 18.0407 189.876 17.834 190.661 16.7327L192.936 13.634C193.093 13.4273 193.329 13.29 193.643 13.29H193.799V18.0407ZM135.033 27.5407H132.836V22.7907H132.601C132.286 22.7907 132.051 22.928 131.894 23.1347L129.619 26.2333C128.834 27.3347 128.128 27.5413 126.481 27.5413H126.088C125.146 27.5413 124.362 26.8527 124.362 26.0267V21H126.637V25.7507H126.794C126.931 25.7539 127.066 25.7242 127.189 25.6643C127.312 25.6043 127.419 25.5158 127.501 25.406L129.854 22.308C130.561 21.4133 131.188 21 132.443 21H133.306C134.248 21 135.033 21.6887 135.033 22.5147V27.5407ZM151.43 27.5413H153.706V22.4467C153.706 21.62 152.921 20.932 151.979 20.932H150.881C149.783 20.932 149.233 21.3453 148.841 22.24L147.35 25.7513H146.723L145.231 22.24C144.839 21.3453 144.29 21.0007 143.113 21.0007H142.093C141.151 21.0007 140.367 21.6893 140.367 22.5153V27.5413H142.564V22.7907H142.721C142.956 22.7907 143.113 22.9287 143.191 23.1353L145.075 27.5413H148.919L150.803 23.1347C150.881 22.928 151.038 22.7907 151.273 22.7907H151.43V27.5413ZM157.081 25.7513H163.829V22.722H157.081V25.7513ZM166.183 25.4073C166.183 26.784 165.241 27.4727 163.358 27.4727H157.63C155.747 27.4727 154.805 26.784 154.805 25.4073V22.9973C154.805 21.6207 155.747 20.932 157.63 20.932H163.358C165.241 20.932 166.183 21.6207 166.183 22.9973V25.4073ZM169.713 22.722H178.109V21H169.635C168.065 21 167.36 21.5507 167.36 22.5833V25.9567C167.36 26.99 168.145 27.5407 169.635 27.5407H178.109V25.7507H169.713V22.722ZM189.721 22.722H185.719V27.5413H183.365V22.7213H179.285V21.0007H189.721V22.722ZM201.725 27.5413H204V21.0013H201.725V27.5413ZM193.172 25.7513V24.9247H198.272C198.508 24.9247 198.665 24.994 198.665 25.1313V25.5447C198.665 25.6827 198.586 25.7513 198.272 25.7513H193.172ZM198.665 27.4727C200.234 27.4727 200.94 26.922 200.94 25.8887V24.65C200.94 23.6167 200.155 23.066 198.665 23.066H193.094V20.9327H190.818V27.4727H198.665ZM51.9403 27.5413H57.5898V14.1853C57.5898 12.6707 56.2562 11.5 54.5298 11.5H33.973C32.2466 11.5 30.913 12.6707 30.913 14.1847V27.472H36.4834V15.8373H51.9403V27.5413ZM87.2489 15.8373H66.6136V23.204H87.3273V27.5413H66.4568C62.7689 27.5413 60.9641 26.2333 60.9641 23.6167V15.424C60.9641 12.808 62.7689 11.5 66.4568 11.5H87.2489V15.8373ZM91.8797 27.5413L105.689 11.5H112.516L98.7845 27.5413H91.8797ZM108.749 27.5413H101.844L115.575 11.5H122.48L108.749 27.5413Z" fill="#2A2A2A"/>
</g>
<defs>
<clipPath id="clip0_252_3542">
<rect width="204" height="40" fill="white"/>
</clipPath>
</defs>
</svg>
