<svg width="192" height="40" viewBox="0 0 192 40" fill="none" xmlns="http://www.w3.org/2000/svg">
<g clip-path="url(#clip0_252_3549)">
<path d="M39.64 15.6399H0V30.2399L11.48 18.7599H39.64V15.6399Z" fill="#2A2A2A"/>
<path d="M39.64 0H0V3.12H39.64V0Z" fill="#2A2A2A"/>
<path d="M39.64 5.19995H0V8.31995H39.64V5.19995Z" fill="#2A2A2A"/>
<path d="M39.64 10.4399H0V13.5599H39.64V10.4399Z" fill="#2A2A2A"/>
<path d="M13.56 20.8401L0 34.4001V39.6001H5.2L20.88 23.9601H39.64V20.8401H13.56Z" fill="#2A2A2A"/>
<path d="M22.9584 26.04L9.39844 39.6H39.6384V26.04H22.9584Z" fill="#2A2A2A"/>
<path d="M97.0395 23.4801C96.6795 25.4001 96.5195 27.4001 96.5195 29.4401C96.5195 31.4801 96.6795 33.4401 97.0395 35.4001C97.1595 36.0401 97.7195 36.4801 98.3595 36.4801H109.32V33.8001H100.48V30.7601H108.52V28.2401H100.48V25.0401H109.32V22.4001H98.3595C97.7195 22.4001 97.1595 22.8401 97.0395 23.4801Z" fill="#2A2A2A"/>
<path d="M52.1602 36.4801H55.9202V24.9201H61.6402V36.4801H65.4002V22.4001H52.1602V36.4801Z" fill="#2A2A2A"/>
<path d="M124.442 22.4001H121.402C120.802 22.4001 120.322 22.7201 120.042 23.2401L117.162 28.2801H114.562V22.4001H110.602V36.4801H114.562V30.7601H117.122L119.682 35.4001C120.082 36.1201 120.682 36.4801 121.482 36.4801H124.522L120.322 29.4801L124.442 22.4001Z" fill="#2A2A2A"/>
<path d="M78.5602 22.4001H67.1602V36.4801H70.8802V33.0801H78.5602C79.2002 33.0801 79.7602 32.6001 79.8802 32.0001C80.1602 30.5201 80.2802 29.2401 80.2802 27.7601C80.2802 26.2801 80.1602 25.0001 79.8802 23.5201C79.7602 22.8401 79.2002 22.4001 78.5602 22.4001ZM76.4802 30.4001H70.8802V25.0801H76.4802V30.4001Z" fill="#2A2A2A"/>
<path d="M93.4005 22.4001H83.3205C82.6805 22.4001 82.1205 22.8801 82.0005 23.4801C81.6405 25.4001 81.4805 27.4001 81.4805 29.4401C81.4805 31.4401 81.6405 33.4401 82.0005 35.4001C82.1205 36.0401 82.6805 36.4801 83.3205 36.4801H93.4005C94.0405 36.4801 94.6005 36.0401 94.7205 35.4001C95.0805 33.4801 95.2405 31.4801 95.2405 29.4401C95.2405 27.4401 95.0805 25.4401 94.7205 23.4801C94.6005 22.8401 94.0805 22.4001 93.4005 22.4001ZM91.3205 33.8001H85.4405V25.0801H91.3205V33.8001Z" fill="#2A2A2A"/>
<path d="M124.602 25.0801H128.442V36.4801H132.162V25.0801H136.762V22.4001H124.602V25.0801Z" fill="#2A2A2A"/>
<path d="M55.9192 13.8001H63.5992C64.2392 13.8001 64.7992 13.3201 64.9192 12.7201C65.1992 11.2401 65.3192 9.96012 65.3192 8.48012C65.3192 7.00012 65.1992 5.72012 64.9192 4.24012C64.7992 3.60012 64.2392 3.12012 63.5992 3.12012H52.1992V17.2001H55.9192V13.8001ZM55.9192 5.80012H61.5192V11.1201H55.9192V5.80012Z" fill="#2A2A2A"/>
<path d="M78.4395 3.12012H68.3595C67.7195 3.12012 67.1595 3.56012 67.0395 4.20012C66.6795 6.12012 66.5195 8.12012 66.5195 10.1601C66.5195 12.2001 66.6795 14.1601 67.0395 16.1201C67.1595 16.7601 67.7195 17.2001 68.3595 17.2001H78.4395C79.0795 17.2001 79.6395 16.7601 79.7595 16.1201C80.1195 14.2001 80.2795 12.2001 80.2795 10.1601C80.2795 8.16012 80.1195 6.16012 79.7595 4.20012C79.6395 3.60012 79.0795 3.12012 78.4395 3.12012ZM76.3195 14.5201H70.4395V5.80012H76.3195V14.5201Z" fill="#2A2A2A"/>
<path d="M175.44 3.12012H165.36C164.72 3.12012 164.16 3.56012 164.04 4.20012C163.68 6.12012 163.52 8.12012 163.52 10.1601C163.52 12.2001 163.68 14.1601 164.04 16.1201C164.16 16.7601 164.72 17.2001 165.36 17.2001H175.44C176.08 17.2001 176.64 16.7601 176.76 16.1201C177.12 14.2001 177.28 12.2001 177.28 10.1601C177.28 8.16012 177.12 6.16012 176.76 4.20012C176.64 3.56012 176.08 3.12012 175.44 3.12012ZM173.36 14.5201H167.48V5.76012H173.36V14.5201Z" fill="#2A2A2A"/>
<path d="M93.3977 5.80012V3.12012H83.4377C82.7977 3.12012 82.2377 3.56012 82.1177 4.20012C81.7577 6.12012 81.5977 8.12012 81.5977 10.1601C81.5977 12.2001 81.7577 14.1601 82.1177 16.1201C82.2377 16.7601 82.7977 17.2001 83.4377 17.2001H93.3977V14.5201H85.5577V5.80012H93.3977Z" fill="#2A2A2A"/>
<path d="M132.679 12.8801C132.679 13.7201 132.399 14.5201 131.399 14.5201H130.879C130.879 14.8801 130.879 17.2001 130.879 17.2001C130.879 17.2001 131.519 17.2001 132.319 17.2001C134.639 17.2001 136.199 15.6801 136.199 12.9601C136.199 12.9601 136.199 7.56012 136.199 5.80012H141.279V17.2001H144.999V3.12012H132.679V12.8801Z" fill="#2A2A2A"/>
<path d="M161.118 3.12012H148.798V11.4801C148.798 13.3601 147.958 14.6801 146.718 14.6801C146.438 14.6801 146.078 14.6801 146.078 14.6801V19.8401H148.998C149.118 19.2001 149.278 18.2001 149.358 17.8001C149.358 17.6801 149.438 17.2801 149.478 17.1601H159.398C159.398 17.1601 159.478 17.6001 159.518 17.8801C159.598 18.2401 159.798 19.4001 159.838 19.8401H162.918V14.6801H161.158L161.118 3.12012ZM156.998 14.6801H151.518C151.718 14.4001 152.278 13.4001 152.278 10.8801V5.76012H156.958L156.998 14.6801Z" fill="#2A2A2A"/>
<path d="M113.679 17.1601H116.719L112.519 10.1601L116.679 3.08008H113.639C113.039 3.08008 112.559 3.40008 112.279 3.88008L109.399 8.92008H107.479V3.12008H103.519V8.96008H101.599L98.7192 3.92008C98.4392 3.40008 97.9192 3.12008 97.3192 3.12008H94.2392L98.3992 10.2001L94.1992 17.2001H97.2392C98.0392 17.2001 98.6392 16.8401 99.0392 16.1201L101.599 11.4801H103.479V17.2001H107.439V11.4801H109.319L111.879 16.1201C112.279 16.8001 112.879 17.1601 113.679 17.1601Z" fill="#2A2A2A"/>
<path d="M118.879 17.1601H129.839V14.4801H120.999V11.4401H129.039V8.92012H120.999V5.72012H129.839V3.12012H118.879C118.239 3.12012 117.679 3.56012 117.559 4.20012C117.199 6.12012 117.039 8.12012 117.039 10.1601C117.039 12.2001 117.199 14.1601 117.559 16.1201C117.679 16.7201 118.199 17.1601 118.879 17.1601Z" fill="#2A2A2A"/>
<path d="M191.599 4.20012C191.479 3.56012 190.919 3.12012 190.279 3.12012H178.879V17.2001H182.599V13.8001H190.279C190.919 13.8001 191.479 13.3201 191.599 12.7201C191.879 11.2401 191.999 9.96012 191.999 8.48012C191.999 6.96012 191.879 5.68012 191.599 4.20012ZM188.199 11.1201H182.599V5.76012H188.199V11.1201Z" fill="#2A2A2A"/>
</g>
<defs>
<clipPath id="clip0_252_3549">
<rect width="192" height="40" fill="white"/>
</clipPath>
</defs>
</svg>
