<svg width="425" height="425" viewBox="0 0 425 425" fill="none" xmlns="http://www.w3.org/2000/svg">
<g clip-path="url(#clip0_54_1081)">
<rect width="425" height="425" rx="24" fill="#201A23"/>
<g filter="url(#filter0_f_54_1081)">
<path d="M79.8897 129.834C49.6913 117.123 -13.3966 127.667 -51.1989 183.28C-89.0013 238.893 -51.1989 352.285 -51.1989 352.285C-51.1989 352.285 -26.8385 456.213 79.8897 474.343C186.618 492.473 323.536 514.658 407.268 474.343C491 434.029 491 355.159 491 283.672C491 212.184 447.153 183.28 361.97 183.28C276.788 183.28 245.295 238.893 202.742 238.893C160.19 238.893 117.638 145.724 79.8897 129.834Z" fill="#6323A2"/>
</g>
<g filter="url(#filter1_f_54_1081)">
<path d="M79.8897 205.834C49.6913 193.123 -13.3966 203.667 -51.1989 259.28C-89.0013 314.893 -51.1989 428.285 -51.1989 428.285C-51.1989 428.285 -26.8385 532.213 79.8897 550.343C186.618 568.473 323.536 590.658 407.268 550.343C491 510.029 491 431.159 491 359.672C491 288.184 447.153 259.28 361.97 259.28C276.788 259.28 245.295 314.893 202.742 314.893C160.19 314.893 117.638 221.724 79.8897 205.834Z" fill="#8229F3"/>
</g>
<g opacity="0.95" filter="url(#filter2_f_54_1081)" style="mix-blend-mode:plus-lighter">
<path d="M317.296 333.802C342.373 330.902 385.028 354.288 397.651 407.425C410.274 460.562 353.302 541.56 353.302 541.56C353.302 541.56 308.492 618.247 226.893 607.231C145.294 596.214 40.8955 581.229 -8.81026 529.301C-58.516 477.373 -37.8197 414.775 -19.0607 358.038C-0.301648 301.3 38.8518 288.797 100.181 309.074C161.51 329.351 169.591 380.986 200.227 391.115C230.864 401.244 285.949 337.427 317.296 333.802Z" fill="#F1F1F1"/>
</g>
</g>
<defs>
<filter id="filter0_f_54_1081" x="-168" y="25" width="759" height="572" filterUnits="userSpaceOnUse" color-interpolation-filters="sRGB">
<feFlood flood-opacity="0" result="BackgroundImageFix"/>
<feBlend mode="normal" in="SourceGraphic" in2="BackgroundImageFix" result="shape"/>
<feGaussianBlur stdDeviation="50" result="effect1_foregroundBlur_54_1081"/>
</filter>
<filter id="filter1_f_54_1081" x="-148" y="121" width="719" height="532" filterUnits="userSpaceOnUse" color-interpolation-filters="sRGB">
<feFlood flood-opacity="0" result="BackgroundImageFix"/>
<feBlend mode="normal" in="SourceGraphic" in2="BackgroundImageFix" result="shape"/>
<feGaussianBlur stdDeviation="40" result="effect1_foregroundBlur_54_1081"/>
</filter>
<filter id="filter2_f_54_1081" x="-89.7554" y="249.98" width="539.232" height="408.333" filterUnits="userSpaceOnUse" color-interpolation-filters="sRGB">
<feFlood flood-opacity="0" result="BackgroundImageFix"/>
<feBlend mode="normal" in="SourceGraphic" in2="BackgroundImageFix" result="shape"/>
<feGaussianBlur stdDeviation="25" result="effect1_foregroundBlur_54_1081"/>
</filter>
<clipPath id="clip0_54_1081">
<rect width="425" height="425" rx="24" fill="white"/>
</clipPath>
</defs>
</svg>
