<svg width="425" height="425" viewBox="0 0 425 425" fill="none" xmlns="http://www.w3.org/2000/svg">
<g clip-path="url(#clip0_167_7)">
<rect width="425" height="425" rx="24" fill="#201A23"/>
<g filter="url(#filter0_f_167_7)">
<path d="M79.8897 129.834C49.6912 117.123 -13.3966 127.667 -51.199 183.28C-89.0013 238.893 -51.199 352.285 -51.199 352.285C-51.199 352.285 -26.8386 456.213 79.8897 474.343C186.618 492.473 323.536 514.658 407.268 474.343C491 434.029 491 355.159 491 283.672C491 212.184 447.153 183.28 361.97 183.28C276.788 183.28 245.295 238.893 202.742 238.893C160.19 238.893 117.638 145.724 79.8897 129.834Z" fill="#6323A2"/>
</g>
<g filter="url(#filter1_f_167_7)">
<path d="M79.8897 205.834C49.6913 193.123 -13.3966 203.667 -51.1989 259.28C-89.0013 314.893 -51.1989 428.285 -51.1989 428.285C-51.1989 428.285 -26.8385 532.213 79.8897 550.343C186.618 568.473 323.536 590.658 407.268 550.343C491 510.029 491 431.159 491 359.672C491 288.184 447.153 259.28 361.97 259.28C276.788 259.28 245.295 314.893 202.742 314.893C160.19 314.893 117.638 221.724 79.8897 205.834Z" fill="#8229F3"/>
</g>
<g opacity="0.95" filter="url(#filter2_f_167_7)" style="mix-blend-mode:plus-lighter">
<path d="M79.8897 279.068C49.6913 268.372 -13.3966 277.244 -51.1989 324.037C-89.0013 370.829 -51.1989 466.237 -51.1989 466.237C-51.1989 466.237 -26.8385 553.682 79.8897 568.937C186.618 584.191 323.536 602.857 407.268 568.937C491 535.016 491 468.655 491 408.506C491 348.357 447.153 324.037 361.97 324.037C276.788 324.037 245.295 370.829 202.742 370.829C160.19 370.829 117.638 292.437 79.8897 279.068Z" fill="#F1F1F1"/>
</g>
</g>
<defs>
<filter id="filter0_f_167_7" x="-168" y="25" width="759" height="572" filterUnits="userSpaceOnUse" color-interpolation-filters="sRGB">
<feFlood flood-opacity="0" result="BackgroundImageFix"/>
<feBlend mode="normal" in="SourceGraphic" in2="BackgroundImageFix" result="shape"/>
<feGaussianBlur stdDeviation="50" result="effect1_foregroundBlur_167_7"/>
</filter>
<filter id="filter1_f_167_7" x="-148" y="121" width="719" height="532" filterUnits="userSpaceOnUse" color-interpolation-filters="sRGB">
<feFlood flood-opacity="0" result="BackgroundImageFix"/>
<feBlend mode="normal" in="SourceGraphic" in2="BackgroundImageFix" result="shape"/>
<feGaussianBlur stdDeviation="40" result="effect1_foregroundBlur_167_7"/>
</filter>
<filter id="filter2_f_167_7" x="-118" y="225" width="659" height="413" filterUnits="userSpaceOnUse" color-interpolation-filters="sRGB">
<feFlood flood-opacity="0" result="BackgroundImageFix"/>
<feBlend mode="normal" in="SourceGraphic" in2="BackgroundImageFix" result="shape"/>
<feGaussianBlur stdDeviation="25" result="effect1_foregroundBlur_167_7"/>
</filter>
<clipPath id="clip0_167_7">
<rect width="425" height="425" rx="24" fill="white"/>
</clipPath>
</defs>
</svg>
