<svg width="188" height="40" viewBox="0 0 188 40" fill="none" xmlns="http://www.w3.org/2000/svg">
<g clip-path="url(#clip0_471_165)">
<path d="M0 5.95312H7.0787V32.9756H3.08665V9.77242H0V5.95312Z" fill="white"/>
<path d="M24.0344 5.95312L16.791 17.5753L14.404 16.4664C14.7607 16.2748 15.1585 16.1379 15.5975 16.0558C16.0365 15.9736 16.4755 15.9326 16.9145 15.9326C17.9296 15.8778 18.9173 15.9873 19.8776 16.2611C20.838 16.5349 21.7022 16.9866 22.4704 17.6163C23.2387 18.246 23.8424 19.0811 24.2813 20.1214C24.7477 21.1618 24.981 22.4486 24.981 23.9818C24.981 25.8984 24.5418 27.5548 23.664 28.951C22.7859 30.3474 21.6198 31.4288 20.1657 32.1954C18.739 32.9346 17.1477 33.3042 15.3917 33.3042C14.0747 33.3042 12.7578 33.0442 11.4408 32.524C10.1513 31.9764 9.08126 31.2646 8.23071 30.3884L10.2473 27.103C10.7686 27.7054 11.482 28.2528 12.3874 28.7456C13.3202 29.2386 14.2805 29.485 15.2682 29.485C16.3108 29.485 17.2437 29.2522 18.0668 28.7868C18.9173 28.3214 19.5895 27.6642 20.0834 26.8156C20.6047 25.9394 20.8654 24.9264 20.8654 23.7766C20.8654 22.1886 20.399 20.9428 19.4661 20.0394C18.5607 19.1358 17.3123 18.6841 15.721 18.6841C14.9253 18.6841 14.2531 18.7525 13.7044 18.8894C13.1556 18.9989 12.6618 19.1358 12.2228 19.3001L12.0993 19.1358L18.1343 9.77242H9.79462V5.95312H24.0344Z" fill="white"/>
<path d="M20.0912 37.379C20.0756 37.3946 20.0523 37.3868 20.0212 37.3558C19.9434 37.3246 19.8579 37.2548 19.7646 37.1462C19.6713 37.022 19.578 36.8902 19.4847 36.7504C19.4069 36.5952 19.3447 36.4478 19.298 36.3082C19.2514 36.153 19.228 36.0366 19.228 35.959C19.228 35.928 19.3836 35.8192 19.6946 35.633C20.0212 35.4468 20.4179 35.2218 20.8845 34.958C21.3665 34.6942 21.8876 34.4148 22.4474 34.1198C23.0228 33.8094 23.5596 33.5224 24.0572 33.2586C24.5703 32.9946 25.0059 32.7696 25.3636 32.5834C25.7214 32.3816 25.939 32.2652 26.0168 32.2342C26.3124 32.0636 26.6079 31.9006 26.9033 31.7454C27.1989 31.5902 27.5022 31.4428 27.8132 31.303C28.7931 30.8064 29.7574 30.3098 30.706 29.8132C31.6548 29.3166 32.6112 28.8198 33.5755 28.3232C35.2242 27.4696 36.8727 26.6238 38.5212 25.7858C40.1699 24.9478 41.8262 24.1096 43.4904 23.2716C43.5371 23.256 43.677 23.1862 43.9103 23.062C44.1436 22.9378 44.4236 22.7904 44.7503 22.6198C45.0924 22.449 45.4502 22.2706 45.8234 22.0844C46.2122 21.8826 46.5699 21.704 46.8964 21.5488C47.2231 21.3782 47.4953 21.2384 47.713 21.1298C47.9308 21.0212 48.0475 20.9668 48.0629 20.9668C48.1096 20.9668 48.203 21.0134 48.3429 21.1066C48.4828 21.1996 48.6307 21.3084 48.7863 21.4324C48.9418 21.5412 49.0895 21.6498 49.2294 21.7584C49.3695 21.8516 49.4627 21.9136 49.5094 21.9446C49.5405 21.9756 49.6339 22.0532 49.7894 22.1774C49.9449 22.3016 50.0926 22.4412 50.2325 22.5964C50.3881 22.7362 50.5125 22.8758 50.6059 23.0154C50.7148 23.1396 50.738 23.225 50.6759 23.2716C49.7583 23.9078 48.864 24.5674 47.993 25.2504C47.1375 25.9176 46.2899 26.6238 45.4502 27.3688L43.8171 28.882C43.2571 29.4252 42.6895 29.976 42.1141 30.5348C41.5541 31.078 40.9943 31.629 40.4343 32.1876L38.8479 34.0034C38.8323 34.019 38.8012 34.0034 38.7545 33.957C38.6767 33.9258 38.5914 33.8482 38.498 33.7242C38.4048 33.6 38.3192 33.468 38.2414 33.3284C38.1637 33.1732 38.0937 33.0258 38.0314 32.886C37.9847 32.7308 37.9692 32.6144 37.9847 32.5368C37.9847 32.5058 38.0548 32.405 38.1947 32.2342C38.3503 32.0636 38.5368 31.8618 38.7545 31.629C38.9724 31.3962 39.2057 31.1478 39.4544 30.884C39.719 30.6046 39.9677 30.3408 40.201 30.0924C40.4499 29.8442 40.6676 29.627 40.8542 29.4406C41.0408 29.2544 41.1731 29.1302 41.2508 29.0682H41.2276L42.8839 27.4154C43.6305 26.6704 44.3847 25.9254 45.1469 25.1804C45.9089 24.4356 46.671 23.6984 47.4332 22.969L30.7994 31.7454L20.0912 37.379Z" fill="white"/>
<path d="M44.4236 31.2563C44.0815 31.7219 43.8871 32.0557 43.8404 32.2575C43.8093 32.4591 43.8636 32.5833 44.0037 32.6299C44.1593 32.6609 44.3769 32.6299 44.6569 32.5367C44.9369 32.4437 45.2324 32.3273 45.5434 32.1875C45.8545 32.0323 46.1499 31.8771 46.4299 31.7219C46.7099 31.5667 46.9197 31.4503 47.0598 31.3727C47.2154 31.2641 47.3086 31.2331 47.3398 31.2797C47.3709 31.3107 47.4565 31.3805 47.5964 31.4891C47.6118 31.5047 47.5964 31.5513 47.5497 31.6289L47.3398 31.7685C47.1065 31.9547 46.8654 32.1333 46.6165 32.3039C46.3678 32.4747 46.111 32.6377 45.8467 32.7929C45.6911 32.8859 45.4889 32.9945 45.2402 33.1187C45.0069 33.2429 44.7579 33.3437 44.4936 33.4213C44.2292 33.4835 43.9725 33.5067 43.7237 33.4913C43.4748 33.4601 43.2804 33.3361 43.1405 33.1187L42.5805 32.3039C42.4406 32.1023 42.3939 31.8771 42.4406 31.6289C42.5027 31.3651 42.604 31.1089 42.7439 30.8607C42.8838 30.6123 43.0471 30.3795 43.2337 30.1623C43.4205 29.9449 43.5836 29.7743 43.7237 29.6501C43.926 29.4483 44.1358 29.2621 44.3537 29.0913C44.5713 28.9051 44.7968 28.7499 45.0301 28.6257C45.2013 28.5481 45.3879 28.4783 45.5901 28.4163C45.8078 28.3387 46.0022 28.3309 46.1734 28.3929L47.3398 29.6733C47.3709 29.7045 47.3787 29.7509 47.3631 29.8131C47.3475 29.8597 47.3164 29.9139 47.2697 29.9759C47.2232 30.0381 47.1687 30.0923 47.1065 30.1389C47.0598 30.1855 47.0288 30.2165 47.0131 30.2321C46.7798 30.5115 46.461 30.7365 46.0567 30.9071C45.6679 31.0623 45.2945 31.1555 44.9369 31.1865L44.4236 31.2563ZM46.4299 29.7433C46.4143 29.6967 46.3678 29.6579 46.29 29.6269C46.1655 29.5803 46.0254 29.5957 45.8699 29.6733C45.73 29.7355 45.5823 29.8285 45.4268 29.9527C45.2867 30.0769 45.1546 30.2087 45.0301 30.3485C44.9057 30.4881 44.8125 30.6045 44.7501 30.6977C45.0458 30.6355 45.3644 30.5269 45.7068 30.3717C46.0489 30.2165 46.29 30.0071 46.4299 29.7433Z" fill="white"/>
<path d="M50.6914 29.5109L52.2078 28.5797C52.3166 28.4865 52.4565 28.4865 52.6277 28.5797H52.6744C52.7989 28.6417 52.9231 28.7349 53.0476 28.8589C53.0787 28.8901 53.1254 28.9365 53.1877 28.9987C53.2498 29.0607 53.312 29.1305 53.3743 29.2081C53.4364 29.2857 53.4831 29.3633 53.5142 29.4409C53.5609 29.5031 53.5765 29.5573 53.5609 29.6039L55.2639 28.5797C55.3727 28.4865 55.5128 28.4865 55.6838 28.5797H55.7305C55.855 28.6417 55.9794 28.7349 56.1037 28.8589C56.1815 28.9211 56.2905 29.0375 56.4304 29.2081C56.5859 29.3789 56.6481 29.5185 56.617 29.6273C56.5859 29.7049 56.5314 29.7669 56.4536 29.8135C56.3915 29.8601 56.3294 29.9143 56.267 29.9763C56.1426 30.0851 56.0259 30.1937 55.9171 30.3023C55.8239 30.4109 55.7227 30.5273 55.6139 30.6515L54.4706 31.9785L53.9341 32.6069C54.1209 32.5759 54.3307 32.5139 54.564 32.4207C54.8129 32.3121 55.0617 32.2035 55.3106 32.0949C55.575 31.9707 55.8239 31.8465 56.0572 31.7223C56.2905 31.5827 56.4849 31.4663 56.6402 31.3731C56.827 31.2645 56.9359 31.2257 56.9669 31.2567C56.998 31.2879 57.0836 31.3655 57.2235 31.4895C57.2235 31.5051 57.208 31.5517 57.177 31.6293L56.9669 31.7689C56.7647 31.9241 56.5003 32.1181 56.1738 32.3509C55.8471 32.5681 55.505 32.7777 55.1473 32.9795C54.7895 33.1657 54.4317 33.3131 54.0742 33.4217C53.7164 33.5305 53.4054 33.5381 53.141 33.4451C53.0476 33.4451 52.9388 33.3597 52.8143 33.1889C52.6898 33.0183 52.6045 32.8941 52.5578 32.8165C52.5111 32.7233 52.4489 32.6069 52.3712 32.4673C52.3088 32.3121 52.2856 32.1803 52.301 32.0715C52.301 32.0095 52.3633 31.9009 52.4878 31.7457C52.6121 31.5905 52.7522 31.4197 52.9077 31.2335C53.0632 31.0473 53.2188 30.8765 53.3743 30.7213C53.5452 30.5507 53.6697 30.4187 53.7475 30.3255C53.1254 30.6515 52.5966 30.9851 52.1611 31.3267C51.7412 31.6525 51.3057 32.0871 50.8547 32.6303L50.1081 33.4451C49.9993 33.4451 49.8827 33.3597 49.7582 33.1889C49.6337 33.0183 49.5481 32.8941 49.5016 32.8165C49.4549 32.7233 49.3928 32.6069 49.3151 32.4673C49.2527 32.3121 49.2295 32.1803 49.2449 32.0715C49.2605 32.0095 49.3305 31.9009 49.4549 31.7457C49.5794 31.5749 49.7193 31.4043 49.8748 31.2335C50.0304 31.0473 50.1859 30.8687 50.3414 30.6981C50.497 30.5273 50.6136 30.4031 50.6914 30.3255C49.867 30.7135 49.1671 31.2645 48.5917 31.9785L47.3086 33.4217C47.2619 33.4683 47.2076 33.4683 47.1452 33.4217C47.0831 33.3597 47.0132 33.2899 46.9354 33.2123C46.8733 33.1347 46.8187 33.0571 46.772 32.9795C46.7253 32.8863 46.6943 32.8321 46.6788 32.8165C46.6321 32.7233 46.5698 32.6069 46.492 32.4673C46.4299 32.3121 46.4067 32.1803 46.4221 32.0715C46.4221 32.0095 46.492 31.8853 46.6321 31.6991C46.7877 31.5129 46.9508 31.3189 47.122 31.1171C47.2931 30.9153 47.4641 30.7291 47.6353 30.5583C47.8062 30.3877 47.9153 30.2713 47.9618 30.2091C48.0085 30.1627 48.1173 30.0539 48.2885 29.8833C48.4596 29.6971 48.6462 29.5109 48.8485 29.3245C49.0505 29.1229 49.2295 28.9443 49.385 28.7891C49.556 28.6339 49.6648 28.5563 49.7115 28.5563C49.7893 28.5563 49.8905 28.6185 50.0147 28.7425C50.1548 28.8513 50.248 28.9289 50.2947 28.9753C50.3571 29.0529 50.427 29.1383 50.5048 29.2315C50.598 29.3245 50.6603 29.4177 50.6914 29.5109Z" fill="white"/>
<path d="M27.1385 24.8857C28.6662 26.1771 30.6416 26.9575 32.8004 26.9575C33.1006 26.9575 33.397 26.9415 33.6895 26.9121L27.8204 29.9321C27.1836 29.6623 26.5727 29.3439 25.9939 28.9789C26.6443 27.7293 27.0453 26.3463 27.1385 24.8857Z" fill="white"/>
<path d="M32.8004 5.47949C39.8465 5.47949 45.5583 11.1793 45.5583 18.2103C45.5583 19.1547 45.4541 20.0748 45.2587 20.9604L39.3836 23.9826C40.7412 22.442 41.5666 20.423 41.5666 18.2103C41.5664 13.3795 37.6415 9.46355 32.8004 9.46355C28.4028 9.46363 24.7614 12.695 24.1313 16.9082C23.1414 15.8916 21.9483 15.0506 20.6118 14.4411C22.222 9.25041 27.0696 5.47955 32.8004 5.47949Z" fill="white"/>
<path d="M86.4293 0C95.3801 0 99.8557 2.65121e-05 102.636 2.7748C105.417 5.54958 105.417 10.0156 105.417 18.9475V21.0526C105.417 29.9844 105.417 34.4504 102.636 37.2252C99.8557 40 95.3801 40 86.4293 40H84.3196C75.3687 40 70.8932 40 68.1125 37.2252C65.3318 34.4504 65.3318 29.9844 65.3318 21.0526V18.9475C65.3318 10.0156 65.3318 5.54958 68.1125 2.7748C70.8932 2.65121e-05 75.3687 0 84.3196 0H86.4293ZM81.6539 23.4008C81.5559 23.3276 81.4092 23.352 81.3603 23.4496L76.2719 30.8412C76.1741 30.9876 76.2719 31.1828 76.443 31.1828H78.0088C78.0821 31.1828 78.1555 31.1584 78.1799 31.0852L82.7791 24.401C82.828 24.3034 82.8036 24.2058 82.7302 24.1326L81.6539 23.4008ZM87.3781 21.1076C87.2803 21.0346 87.1336 21.059 87.0847 21.1564L80.4307 30.8412C80.3329 30.9876 80.4307 31.1828 80.6019 31.1828H82.1676C82.241 31.1828 82.3143 31.1584 82.3388 31.0852L87.5495 23.5228C87.6228 23.4252 87.7206 23.4008 87.8184 23.474L96.0381 29.1092C96.1848 29.2068 96.3806 29.1092 96.3806 28.9384V27.3772C96.3806 27.304 96.3562 27.2308 96.2828 27.2064L87.3781 21.1076ZM74.535 12.2768C74.3883 12.1792 74.1924 12.2767 74.1924 12.4475V14.0088C74.1924 14.0819 74.2169 14.1551 74.2903 14.1795L80.4063 18.3754C80.5041 18.4486 80.5285 18.5706 80.4552 18.6682L74.2169 27.7188C74.1924 27.7432 74.168 27.7918 74.168 27.8406V30.1826C74.168 30.4022 74.4372 30.4752 74.5594 30.3044L82.828 18.2291C82.9258 18.1315 82.9014 18.0095 82.828 17.9607L74.535 12.2768ZM93.5919 21.1808C93.4941 21.1076 93.3472 21.1322 93.2983 21.2296L92.5643 22.2788C92.491 22.3762 92.5154 22.5224 92.6132 22.5712L96.0381 24.9376C96.1848 25.0352 96.3806 24.9378 96.3806 24.767V23.2544C96.3806 23.1814 96.3562 23.108 96.3073 23.0836L93.5919 21.1808ZM79.5498 9.03222C79.3298 9.03226 79.2564 9.30048 79.452 9.42246L96.0626 20.815C96.2093 20.9126 96.4051 20.8148 96.4051 20.6442V19.083C96.4051 19.0098 96.3562 18.9609 96.3073 18.9121L81.9473 9.08106C81.9229 9.05666 81.874 9.03224 81.8251 9.03222H79.5498ZM74.4127 9.03222C74.2905 9.03226 74.1924 9.12982 74.1924 9.25176V10.0568C74.1924 10.13 74.2413 10.2031 74.2903 10.2275L79.5254 13.6186C79.6234 13.6917 79.7457 13.6673 79.819 13.5697L80.553 12.4963C80.6263 12.3987 80.6019 12.3011 80.5041 12.2035L75.6604 9.05664C75.6359 9.03226 75.587 9.03222 75.5381 9.03222H74.4127Z" fill="white"/>
<path d="M114.73 13.7047V6.92578H117.408C119 6.92578 119.99 7.82642 119.99 9.19188V9.21126C119.99 10.722 118.777 11.5258 117.273 11.5258H115.924V13.7047H114.73ZM115.924 10.4508H117.311C118.214 10.4508 118.777 9.94726 118.777 9.2403V9.22094C118.777 8.41714 118.204 8.01042 117.311 8.01042H115.924V10.4508Z" fill="white"/>
<path d="M124.26 13.8209C122.173 13.8209 120.718 12.2424 120.718 10.3346V10.3153C120.718 8.41713 122.193 6.80957 124.279 6.80957C126.366 6.80957 127.821 8.38809 127.821 10.2959V10.3153C127.821 12.2134 126.346 13.8209 124.26 13.8209ZM124.279 12.7169C125.628 12.7169 126.57 11.6517 126.57 10.3346V10.3153C126.57 8.99819 125.619 7.91357 124.26 7.91357C122.911 7.91357 121.969 8.97883 121.969 10.2959V10.3153C121.969 11.6323 122.921 12.7169 124.279 12.7169Z" fill="white"/>
<path d="M132.224 13.8209C130.244 13.8209 128.769 12.2812 128.769 10.3346V10.3153C128.769 8.38809 130.215 6.80957 132.262 6.80957C133.524 6.80957 134.281 7.24535 134.931 7.86513L134.165 8.74641C133.612 8.24283 133.039 7.91357 132.253 7.91357C130.972 7.91357 130.021 8.96913 130.021 10.2959V10.3153C130.021 11.642 130.962 12.7169 132.262 12.7169C133.087 12.7169 133.631 12.3877 134.213 11.8453L134.98 12.6201C134.291 13.3658 133.485 13.8209 132.224 13.8209Z" fill="white"/>
<path d="M139.014 13.8209C137.034 13.8209 135.559 12.2812 135.559 10.3346V10.3153C135.559 8.38809 137.005 6.80957 139.053 6.80957C140.315 6.80957 141.072 7.24535 141.722 7.86513L140.955 8.74641C140.402 8.24283 139.83 7.91357 139.043 7.91357C137.762 7.91357 136.811 8.96913 136.811 10.2959V10.3153C136.811 11.642 137.753 12.7169 139.053 12.7169C139.878 12.7169 140.421 12.3877 141.004 11.8453L141.771 12.6201C141.081 13.3658 140.276 13.8209 139.014 13.8209Z" fill="white"/>
<path d="M148.761 13.7047H147.567V8.80452L143.879 13.7047H142.841V6.92578H144.034V11.7001L147.616 6.92578H148.761V13.7047Z" fill="white"/>
<path d="M153.274 6.38264C152.342 6.38264 151.672 5.92748 151.595 5.08496H152.429C152.546 5.38518 152.779 5.56918 153.274 5.56918C153.769 5.56918 154.002 5.38518 154.118 5.08496H154.953C154.875 5.92748 154.205 6.38264 153.274 6.38264ZM156.234 13.7039H155.04V8.8037L151.352 13.7039H150.314V6.92496H151.507V11.6993L155.088 6.92496H156.234V13.7039Z" fill="white"/>
<path d="M160.941 13.8209C158.961 13.8209 157.486 12.2812 157.486 10.3346V10.3153C157.486 8.38809 158.932 6.80957 160.98 6.80957C162.241 6.80957 162.998 7.24535 163.649 7.86513L162.882 8.74641C162.329 8.24283 161.756 7.91357 160.97 7.91357C159.689 7.91357 158.738 8.96913 158.738 10.2959V10.3153C158.738 11.642 159.679 12.7169 160.98 12.7169C161.805 12.7169 162.348 12.3877 162.93 11.8453L163.697 12.6201C163.008 13.3658 162.203 13.8209 160.941 13.8209Z" fill="white"/>
<path d="M164.767 13.7047V6.92578H165.961L165.951 9.74388H166.698L169.251 6.92578H170.755L167.659 10.199L170.92 13.7047H169.387L166.727 10.7995H165.951L165.961 13.7047H164.767Z" fill="white"/>
<path d="M177.61 13.7047H176.417V8.80452L172.729 13.7047H171.69V6.92578H172.884V11.7001L176.465 6.92578H177.61V13.7047Z" fill="white"/>
<path d="M182.124 6.38264C181.192 6.38264 180.523 5.92748 180.445 5.08496H181.279C181.396 5.38518 181.629 5.56918 182.124 5.56918C182.619 5.56918 182.852 5.38518 182.968 5.08496H183.803C183.725 5.92748 183.055 6.38264 182.124 6.38264ZM185.084 13.7039H183.89V8.8037L180.202 13.7039H179.164V6.92496H180.357V11.6993L183.939 6.92496H185.084V13.7039Z" fill="white"/>
<path d="M116.797 23.4645H115.468L116.826 21.1305L114.109 16.6855H115.468L117.486 20.0653L119.33 16.6855H120.66L116.797 23.4645Z" fill="white"/>
<path d="M121.502 23.4645V16.6855H122.695V19.5037H125.937V16.6855H127.13V23.4645H125.937V20.6077H122.695V23.4645H121.502Z" fill="white"/>
<path d="M134.601 23.4645H133.407V18.5643L129.719 23.4645H128.681V16.6855H129.875V21.4599L133.456 16.6855H134.601V23.4645Z" fill="white"/>
<path d="M136.154 23.4645V16.6855H139.201C139.988 16.6855 140.579 16.8889 140.977 17.286C141.278 17.5862 141.433 17.9639 141.433 18.4093V18.4287C141.433 19.2519 140.968 19.678 140.463 19.9394C141.269 20.2203 141.812 20.6561 141.812 21.5857V21.6051C141.812 22.8157 140.812 23.4645 139.299 23.4645H136.154ZM140.24 18.6224V18.603C140.24 18.0607 139.822 17.7411 139.046 17.7411H137.328V19.5424H138.959C139.735 19.5424 140.24 19.2422 140.24 18.6224ZM140.618 21.4791V21.4599C140.618 20.8787 140.162 20.5495 139.221 20.5495H137.328V22.4089H139.308C140.123 22.4089 140.618 22.0989 140.618 21.4791Z" fill="white"/>
<path d="M142.964 23.4645V16.6855H148.001V17.7508H144.158V19.5133H147.564V20.5883H144.158V22.3991H148.049V23.4645H142.964Z" fill="white"/>
<path d="M149.271 23.4645V16.6855H151.95C153.541 16.6855 154.531 17.5862 154.531 18.9517V18.971C154.531 20.4817 153.318 21.2855 151.814 21.2855H150.465V23.4645H149.271ZM150.465 20.2105H151.853C152.755 20.2105 153.318 19.707 153.318 19.0001V18.9807C153.318 18.1769 152.746 17.7702 151.853 17.7702H150.465V20.2105Z" fill="white"/>
<path d="M158.714 23.5807C156.734 23.5807 155.259 22.0409 155.259 20.0943V20.0749C155.259 18.1479 156.705 16.5693 158.753 16.5693C160.014 16.5693 160.771 17.0051 161.421 17.6249L160.655 18.5062C160.102 18.0026 159.529 17.6733 158.743 17.6733C157.462 17.6733 156.511 18.7289 156.511 20.0557V20.0749C156.511 21.4017 157.452 22.4767 158.753 22.4767C159.578 22.4767 160.121 22.1475 160.703 21.6051L161.47 22.3799C160.781 23.1255 159.975 23.5807 158.714 23.5807Z" fill="white"/>
<path d="M168.46 23.4645H167.266V18.5643L163.578 23.4645H162.54V16.6855H163.734V21.4599L167.315 16.6855H168.46V23.4645Z" fill="white"/>
<path d="M171.673 23.4645V17.7895H169.509V16.6855H175.03V17.7895H172.866V23.4645H171.673Z" fill="white"/>
<path d="M176.074 23.4645V16.6855H181.111V17.7508H177.268V19.5133H180.674V20.5883H177.268V22.3991H181.159V23.4645H176.074Z" fill="white"/>
<path d="M184.032 23.4645V17.7895H181.867V16.6855H187.39V17.7895H185.225V23.4645H184.032Z" fill="white"/>
<path d="M116.39 33.2243V27.5493H114.225V26.4453H119.747V27.5493H117.583V33.2243H116.39Z" fill="white"/>
<path d="M120.791 33.2243V26.4453H123.469C125.061 26.4453 126.051 27.3459 126.051 28.7115V28.7307C126.051 30.2415 124.838 31.0453 123.334 31.0453H121.985V33.2243H120.791ZM121.985 29.9703H123.372C124.275 29.9703 124.838 29.4667 124.838 28.7599V28.7405C124.838 27.9367 124.265 27.5299 123.372 27.5299H121.985V29.9703Z" fill="white"/>
<path d="M125.815 33.2249L128.804 26.3975H129.91L132.899 33.2249H131.637L130.949 31.5883H127.736L127.038 33.2249H125.815ZM128.173 30.5327H130.512L129.338 27.8211L128.173 30.5327Z" fill="white"/>
<path d="M133.87 33.2243V26.4453H135.064V29.2635H138.305V26.4453H139.499V33.2243H138.305V30.3675H135.064V33.2243H133.87Z" fill="white"/>
<path d="M144.203 33.3405C142.224 33.3405 140.749 31.8007 140.749 29.8541V29.8347C140.749 27.9077 142.195 26.3291 144.242 26.3291C145.504 26.3291 146.261 26.7649 146.911 27.3847L146.144 28.2659C145.591 27.7623 145.019 27.4331 144.233 27.4331C142.952 27.4331 142.001 28.4887 142.001 29.8155V29.8347C142.001 31.1615 142.942 32.2365 144.242 32.2365C145.067 32.2365 145.611 31.9073 146.193 31.3649L146.96 32.1397C146.271 32.8853 145.465 33.3405 144.203 33.3405Z" fill="white"/>
<path d="M148.03 33.2243V26.4453H153.63V33.2243H152.426V27.5299H149.223V33.2243H148.03Z" fill="white"/>
<path d="M158.413 33.3405C156.326 33.3405 154.87 31.7619 154.87 29.8541V29.8347C154.87 27.9367 156.346 26.3291 158.432 26.3291C160.519 26.3291 161.974 27.9077 161.974 29.8155V29.8347C161.974 31.7329 160.499 33.3405 158.413 33.3405ZM158.432 32.2365C159.781 32.2365 160.722 31.1713 160.722 29.8541V29.8347C160.722 28.5177 159.771 27.4331 158.413 27.4331C157.064 27.4331 156.122 28.4983 156.122 29.8155V29.8347C156.122 31.1519 157.073 32.2365 158.432 32.2365Z" fill="white"/>
<path d="M163.222 33.2243V26.4453H165.901C167.492 26.4453 168.482 27.3459 168.482 28.7115V28.7307C168.482 30.2415 167.269 31.0453 165.765 31.0453H164.416V33.2243H163.222ZM164.416 29.9703H165.804C166.706 29.9703 167.269 29.4667 167.269 28.7599V28.7405C167.269 27.9367 166.697 27.5299 165.804 27.5299H164.416V29.9703Z" fill="white"/>
<path d="M171.17 33.2243V27.5493H169.006V26.4453H174.528V27.5493H172.364V33.2243H171.17Z" fill="white"/>
<path d="M174.127 33.2249L177.116 26.3975H178.222L181.211 33.2249H179.95L179.261 31.5883H176.048L175.35 33.2249H174.127ZM176.485 30.5327H178.824L177.65 27.8211L176.485 30.5327Z" fill="white"/>
</g>
<defs>
<clipPath id="clip0_471_165">
<rect width="188" height="40" fill="white"/>
</clipPath>
</defs>
</svg>
