<svg width="425" height="425" viewBox="0 0 425 425" fill="none" xmlns="http://www.w3.org/2000/svg">
<g clip-path="url(#clip0_54_1075)">
<rect width="425" height="425" rx="24" fill="#201A23"/>
<g filter="url(#filter0_f_54_1075)">
<path d="M79.8897 171.834C49.6913 159.123 -13.3966 169.667 -51.1989 225.28C-89.0013 280.893 -51.1989 394.285 -51.1989 394.285C-51.1989 394.285 -26.8385 498.213 79.8897 516.343C186.618 534.473 323.536 556.658 407.268 516.343C491 476.029 491 397.159 491 325.672C491 254.184 447.153 225.28 361.97 225.28C276.788 225.28 245.295 280.893 202.742 280.893C160.19 280.893 117.638 187.724 79.8897 171.834Z" fill="#8229F3"/>
</g>
<g filter="url(#filter1_f_54_1075)">
<path d="M79.8897 247.834C49.6913 235.123 -13.3966 245.667 -51.1989 301.28C-89.0013 356.893 -51.1989 470.285 -51.1989 470.285C-51.1989 470.285 -26.8385 574.213 79.8897 592.343C186.618 610.473 323.536 632.658 407.268 592.343C491 552.029 491 473.159 491 401.672C491 330.184 447.153 301.28 361.97 301.28C276.788 301.28 245.295 356.893 202.742 356.893C160.19 356.893 117.638 263.724 79.8897 247.834Z" fill="#C109D7"/>
</g>
<g opacity="0.95" filter="url(#filter2_f_54_1075)" style="mix-blend-mode:plus-lighter">
<path d="M79.8897 321.068C49.6913 310.372 -13.3966 319.244 -51.1989 366.037C-89.0013 412.829 -51.1989 508.237 -51.1989 508.237C-51.1989 508.237 -26.8385 595.682 79.8897 610.937C186.618 626.191 323.536 644.857 407.268 610.937C491 577.016 491 510.655 491 450.506C491 390.357 447.153 366.037 361.97 366.037C276.788 366.037 245.295 412.829 202.742 412.829C160.19 412.829 117.638 334.437 79.8897 321.068Z" fill="#F1F1F1"/>
</g>
</g>
<defs>
<filter id="filter0_f_54_1075" x="-168" y="67" width="759" height="572" filterUnits="userSpaceOnUse" color-interpolation-filters="sRGB">
<feFlood flood-opacity="0" result="BackgroundImageFix"/>
<feBlend mode="normal" in="SourceGraphic" in2="BackgroundImageFix" result="shape"/>
<feGaussianBlur stdDeviation="50" result="effect1_foregroundBlur_54_1075"/>
</filter>
<filter id="filter1_f_54_1075" x="-148" y="163" width="719" height="532" filterUnits="userSpaceOnUse" color-interpolation-filters="sRGB">
<feFlood flood-opacity="0" result="BackgroundImageFix"/>
<feBlend mode="normal" in="SourceGraphic" in2="BackgroundImageFix" result="shape"/>
<feGaussianBlur stdDeviation="40" result="effect1_foregroundBlur_54_1075"/>
</filter>
<filter id="filter2_f_54_1075" x="-118" y="267" width="659" height="413" filterUnits="userSpaceOnUse" color-interpolation-filters="sRGB">
<feFlood flood-opacity="0" result="BackgroundImageFix"/>
<feBlend mode="normal" in="SourceGraphic" in2="BackgroundImageFix" result="shape"/>
<feGaussianBlur stdDeviation="25" result="effect1_foregroundBlur_54_1075"/>
</filter>
<clipPath id="clip0_54_1075">
<rect width="425" height="425" rx="24" fill="white"/>
</clipPath>
</defs>
</svg>
