<svg width="425" height="425" viewBox="0 0 425 425" fill="none" xmlns="http://www.w3.org/2000/svg">
<g clip-path="url(#clip0_167_16)">
<rect width="425" height="425" rx="24" fill="#201A23"/>
<g filter="url(#filter0_f_167_16)">
<path d="M53.841 189.325C21.1243 187.553 -34.7011 218.775 -51.512 283.884C-68.3229 348.993 5.5371 442.969 5.5371 442.969C5.5371 442.969 63.5498 532.574 170.133 513.613C276.717 494.651 413.087 469.315 478.296 403.103C543.505 336.89 516.881 262.65 492.75 195.358C468.619 128.067 417.589 115.66 337.406 144.415C257.223 173.169 246.351 236.148 206.297 250.512C166.242 264.876 94.737 191.539 53.841 189.325Z" fill="#6323A2"/>
</g>
<g filter="url(#filter1_f_167_16)">
<path d="M79.4956 260.864C46.7788 259.092 -9.04659 290.314 -25.8575 355.423C-42.6684 420.532 31.1916 514.508 31.1916 514.508C31.1916 514.508 89.2044 604.113 195.788 585.152C302.372 566.19 438.742 540.854 503.95 474.642C569.159 408.429 542.536 334.189 518.405 266.897C494.273 199.606 443.243 187.199 363.06 215.954C282.878 244.708 272.006 307.687 231.951 322.051C191.896 336.415 120.392 263.078 79.4956 260.864Z" fill="#8229F3"/>
</g>
<g opacity="0.95" filter="url(#filter2_f_167_16)" style="mix-blend-mode:plus-lighter">
<path d="M104.216 329.799C72.1798 329.925 15.7898 359.573 -3.99842 416.379C-23.7867 473.185 44.0026 550.232 44.0026 550.232C44.0026 550.232 96.4512 624.322 202.064 602.654C307.677 580.986 442.86 552.338 510.227 492.144C577.594 431.95 555.193 369.484 534.889 312.866C514.585 256.247 465.102 248.155 384.919 276.91C304.737 305.664 290.887 360.34 250.833 374.704C210.778 389.068 144.261 329.641 104.216 329.799Z" fill="#F1F1F1"/>
</g>
</g>
<defs>
<filter id="filter0_f_167_16" x="-154.001" y="29.8882" width="773.178" height="586.359" filterUnits="userSpaceOnUse" color-interpolation-filters="sRGB">
<feFlood flood-opacity="0" result="BackgroundImageFix"/>
<feBlend mode="normal" in="SourceGraphic" in2="BackgroundImageFix" result="shape"/>
<feGaussianBlur stdDeviation="50" result="effect1_foregroundBlur_167_16"/>
</filter>
<filter id="filter1_f_167_16" x="-108.346" y="121.427" width="733.178" height="546.359" filterUnits="userSpaceOnUse" color-interpolation-filters="sRGB">
<feFlood flood-opacity="0" result="BackgroundImageFix"/>
<feBlend mode="normal" in="SourceGraphic" in2="BackgroundImageFix" result="shape"/>
<feGaussianBlur stdDeviation="40" result="effect1_foregroundBlur_167_16"/>
</filter>
<filter id="filter2_f_167_16" x="-57.6184" y="210.717" width="663.058" height="445.907" filterUnits="userSpaceOnUse" color-interpolation-filters="sRGB">
<feFlood flood-opacity="0" result="BackgroundImageFix"/>
<feBlend mode="normal" in="SourceGraphic" in2="BackgroundImageFix" result="shape"/>
<feGaussianBlur stdDeviation="25" result="effect1_foregroundBlur_167_16"/>
</filter>
<clipPath id="clip0_167_16">
<rect width="425" height="425" rx="24" fill="white"/>
</clipPath>
</defs>
</svg>
