<svg width="20" height="20" viewBox="0 0 20 20" fill="none" xmlns="http://www.w3.org/2000/svg">
<path d="M0.599609 6.0293C0.599609 4.92473 1.49504 4.0293 2.59961 4.0293H16.5996C17.7042 4.0293 18.5996 4.92473 18.5996 6.0293V7.7306C18.5996 8.59146 18.0487 9.35574 17.2321 9.62796L10.8645 11.7505C10.0435 12.0242 9.15577 12.0242 8.33471 11.7505L1.96716 9.62796C1.15047 9.35574 0.599609 8.59146 0.599609 7.7306V6.0293Z" stroke="#0575E6" stroke-width="1.2"/>
<path d="M9.59961 9.1713L9.59961 7.45703" stroke="#0575E6" stroke-width="1.2" stroke-linecap="round" stroke-linejoin="round"/>
<path d="M1.34961 9.17188L1.34961 14.6004C1.34961 16.8095 3.14047 18.6004 5.34961 18.6004H13.8496C16.0587 18.6004 17.8496 16.8095 17.8496 14.6004V9.17188" stroke="#0575E6" stroke-width="1.2"/>
<path d="M12.5996 4.02816V2.59961C12.5996 1.49504 11.7042 0.599609 10.5996 0.599609H8.59961C7.49504 0.599609 6.59961 1.49504 6.59961 2.59961L6.59961 4.02816" stroke="#0575E6" stroke-width="1.2"/>
</svg>
