<svg width="20" height="20" viewBox="0 0 20 20" fill="none" xmlns="http://www.w3.org/2000/svg">
<path d="M8.59961 3.53906C8.59961 2.98678 8.15016 2.53262 7.60219 2.60148C6.37337 2.75589 5.19236 3.19419 4.15505 3.88731C2.83945 4.76636 1.81407 6.01579 1.20857 7.47759C0.603072 8.9394 0.444645 10.5479 0.753327 12.0998C1.06201 13.6516 1.82393 15.0771 2.94275 16.1959C4.06158 17.3147 5.48704 18.0767 7.03889 18.3853C8.59073 18.694 10.1993 18.5356 11.6611 17.9301C13.1229 17.3246 14.3723 16.2992 15.2514 14.9836C15.9445 13.9463 16.3828 12.7653 16.5372 11.5365C16.6061 10.9885 16.1519 10.5391 15.5996 10.5391H10.0996C9.27118 10.5391 8.59961 9.86749 8.59961 9.03906V3.53906Z" stroke="#333333" stroke-width="1.2"/>
<path d="M11.5996 1.53906C11.5996 0.986778 12.0496 0.53174 12.5962 0.610371C13.1727 0.693292 13.7379 0.848026 14.2784 1.07191C15.1277 1.42369 15.8993 1.93931 16.5494 2.58932C17.1994 3.23933 17.715 4.011 18.0668 4.86028C18.2906 5.40077 18.4454 5.96596 18.5283 6.54245C18.6069 7.08911 18.1519 7.53906 17.5996 7.53906L12.5996 7.53906C12.0473 7.53906 11.5996 7.09135 11.5996 6.53906V1.53906Z" stroke="#333333" stroke-width="1.2"/>
</svg>
